<svg xmlns="http://www.w3.org/2000/svg" width="256" height="256" viewBox="0 0 256 256" version="1.1"><path d="M 168 65.365 C 164.975 66.023, 161.150 67.332, 159.500 68.274 C 157.850 69.216, 155.375 70.387, 154 70.876 C 149.437 72.500, 139.162 81.012, 134.126 87.342 C 129.854 92.710, 123.951 103.318, 123.465 106.500 C 123.381 107.050, 122.775 108.811, 122.118 110.414 C 119.378 117.105, 119.835 141.745, 122.787 146.449 C 123.150 147.027, 123.485 147.950, 123.532 148.500 C 123.579 149.050, 124.846 152.139, 126.346 155.364 C 131.749 166.972, 143.527 178.877, 155.575 184.907 C 165.973 190.112, 170.032 190.948, 185 190.968 C 199.589 190.988, 206.451 189.331, 215.339 183.646 C 218.474 181.641, 221.213 180, 221.426 180 C 222.504 180, 235 166.694, 235 165.546 C 235 165.309, 236.793 162.256, 238.984 158.761 C 241.176 155.266, 243.265 150.852, 243.628 148.953 C 244.478 144.502, 242.965 145.857, 240.986 151.321 C 236.638 163.320, 225.007 176.480, 213.176 182.783 C 208.824 185.103, 204.641 186.997, 203.881 186.994 C 203.122 186.990, 203.625 186.397, 205 185.674 C 209.484 183.318, 215.817 179.105, 216.475 178.041 C 216.829 177.468, 216.416 177, 215.559 177 C 212.712 177, 213.947 175.233, 217.250 174.580 C 221.825 173.676, 224.308 170.062, 222.710 166.633 C 221.266 163.534, 220.244 163.039, 216.687 163.720 C 214.511 164.135, 214 164.782, 214 167.117 L 214 170 184.860 170 C 158.281 170, 155.604 169.846, 154.392 168.250 C 152.643 165.947, 152.484 163.084, 154.200 164.800 C 156.486 167.086, 157 165.966, 156.972 158.750 C 156.948 152.376, 156.605 151.052, 154.139 147.795 C 152.068 145.061, 151.450 143.293, 151.780 141.045 C 152.032 139.331, 152.833 138, 153.613 138 C 154.376 138, 155 137.539, 155 136.975 C 155 135.603, 150.028 133.775, 148.201 134.476 C 147.401 134.783, 146.241 134.637, 145.623 134.151 C 142.864 131.983, 135.130 132.463, 137.333 134.667 C 137.760 135.093, 138.527 134.780, 139.039 133.971 C 139.853 132.684, 139.971 132.687, 139.984 134 C 139.993 134.825, 142.362 137.618, 145.250 140.207 C 148.137 142.795, 149.938 144.933, 149.250 144.957 C 148.563 144.981, 148 144.550, 148 144 C 148 143.450, 147.473 143, 146.829 143 C 146.185 143, 144.794 142.218, 143.738 141.263 C 141.912 139.611, 141.751 139.620, 140.410 141.454 C 138.264 144.388, 138.666 144.999, 142.750 145.015 C 144.813 145.024, 147.175 145.467, 148 146 C 149.088 146.703, 148.229 146.974, 144.872 146.985 C 141.239 146.997, 139.933 147.468, 138.800 149.175 C 136.384 152.814, 134.282 150.933, 134.149 145.013 C 134.085 142.180, 133.743 139.393, 133.388 138.819 C 133.034 138.246, 133.351 137.401, 134.093 136.943 C 134.835 136.484, 135.148 135.814, 134.788 135.454 C 134.428 135.094, 133.549 135.161, 132.834 135.603 C 130.982 136.747, 127.864 136.865, 125.250 135.890 C 123.213 135.129, 123 134.391, 123 128.107 C 123 119.629, 123.562 118, 126.485 118 C 127.733 118, 129.279 117.369, 129.919 116.598 C 130.558 115.827, 132.229 114.908, 133.632 114.556 C 135.327 114.131, 135.994 113.427, 135.622 112.458 C 135.315 111.656, 135.499 111, 136.031 111 C 136.564 111, 137 110.520, 137 109.933 C 137 108.703, 132.689 109.773, 132.167 111.132 C 131.983 111.609, 131.196 112, 130.417 112 C 127.384 112, 129.249 107.973, 134.510 103.165 C 138.070 99.911, 139.608 97.876, 138.858 97.412 C 138.219 97.017, 137.153 97.438, 136.488 98.347 C 134.758 100.713, 128 105.137, 128 103.904 C 128 101.629, 130.294 98.836, 134.293 96.242 C 138.968 93.210, 145.039 90.086, 146.358 90.034 C 146.830 90.015, 149.400 88.998, 152.068 87.774 C 155.227 86.325, 157.021 84.842, 157.210 83.524 C 157.473 81.692, 158.447 81.446, 167.500 80.925 C 173 80.609, 178.512 80.017, 179.750 79.608 C 181.142 79.148, 182 79.272, 182 79.933 C 182 80.520, 182.787 80.981, 183.750 80.958 C 185.025 80.928, 184.455 79.994, 181.648 77.514 C 179.529 75.643, 177.954 73.657, 178.148 73.101 C 178.769 71.319, 184.862 75.066, 186.178 78.039 C 187.629 81.318, 188.702 81.269, 200.878 77.365 C 204.935 76.064, 208.873 75, 209.628 75 C 210.382 75, 211 74.313, 211 73.474 C 211 72.138, 211.404 72.158, 214.250 73.628 C 226.452 79.935, 239.046 94.810, 241.446 105.750 C 242.210 109.232, 244 110.213, 244 107.149 C 244 104.649, 237.354 92.028, 233.500 87.209 C 227.513 79.723, 221.337 74.810, 211.346 69.586 C 201.486 64.430, 181.318 62.466, 168 65.365 M 173.813 69.683 C 174.534 69.972, 175.397 69.936, 175.729 69.604 C 176.061 69.272, 175.471 69.036, 174.417 69.079 C 173.252 69.127, 173.015 69.364, 173.813 69.683 M 200 74 C 200 74.550, 200.648 75, 201.441 75 C 202.234 75, 203.160 74.550, 203.500 74 C 203.840 73.450, 203.191 73, 202.059 73 C 200.927 73, 200 73.450, 200 74 M 20.250 80.735 C 22.862 80.941, 27.137 80.941, 29.750 80.735 C 32.362 80.529, 30.225 80.360, 25 80.360 C 19.775 80.360, 17.637 80.529, 20.250 80.735 M 96.952 81.442 C 97.809 82.475, 98.025 87.095, 97.711 97.692 C 97.337 110.332, 97.057 162.989, 97.336 168.250 C 97.413 169.704, 98.406 170, 103.214 170 C 108.719 170, 109 169.879, 109 167.500 C 109 166.125, 109.502 165, 110.117 165 C 110.768 165, 111.034 166.041, 110.755 167.500 C 110.384 169.442, 110.692 170, 112.139 170 C 113.925 170, 114 168.255, 114 126.582 C 114 102.702, 114.273 82.452, 114.607 81.582 C 115.135 80.206, 113.946 80, 105.485 80 C 97.122 80, 95.923 80.203, 96.952 81.442 M 35 81.882 C 35 82.432, 35.450 83.160, 36 83.500 C 36.550 83.840, 37 83.668, 37 83.118 C 37 82.568, 36.550 81.840, 36 81.500 C 35.450 81.160, 35 81.332, 35 81.882 M 220.488 83.256 C 219.706 85.448, 220.549 87.891, 222.980 90.478 C 225.756 93.433, 228.566 93.909, 227.537 91.250 C 227.165 90.287, 226.620 88.314, 226.328 86.864 C 225.728 83.893, 221.249 81.125, 220.488 83.256 M 100.543 85.931 C 99.803 87.128, 101.684 88.313, 103.016 87.490 C 104.135 86.799, 103.400 85, 102 85 C 101.515 85, 100.859 85.419, 100.543 85.931 M 109 89.059 C 109 89.641, 109.450 89.840, 110 89.500 C 110.550 89.160, 111 88.684, 111 88.441 C 111 88.198, 110.550 88, 110 88 C 109.450 88, 109 88.477, 109 89.059 M 152.500 92.924 C 150.493 94.113, 149.271 94.349, 148.809 93.637 C 147.874 92.197, 141 95.491, 141 97.379 C 141 98.475, 141.781 98.613, 144.500 98 C 146.425 97.566, 148 97.565, 148 97.998 C 148 98.968, 145.290 100.160, 142.140 100.576 C 139.030 100.986, 138.221 101.900, 139.995 102.997 C 140.873 103.539, 141.933 103.470, 142.716 102.820 C 143.602 102.085, 144 102.080, 144 102.804 C 144 104.132, 149.944 107.152, 151.123 106.424 C 152.553 105.540, 154.306 111.254, 153.168 113.089 C 152.009 114.961, 152.808 116.384, 155.250 116.794 C 156.780 117.051, 157 116.194, 157 109.972 C 157 103.018, 155.811 100, 153.071 100 C 151.651 100, 151.712 98.688, 153.200 97.200 C 155.045 95.355, 155.829 95.749, 156.284 98.750 C 156.513 100.263, 156.768 99.138, 156.850 96.250 C 156.933 93.362, 156.662 91.033, 156.250 91.073 C 155.838 91.113, 154.150 91.946, 152.500 92.924 M 214 94 C 214 95.779, 213.333 96, 207.956 96 C 202.755 96, 201.953 96.244, 202.206 97.750 C 202.401 98.910, 201.853 99.501, 200.582 99.504 C 199.527 99.507, 198.477 100.069, 198.249 100.754 C 197.707 102.378, 196 102.368, 196 100.741 C 196 98.577, 192.073 96.694, 190.422 98.065 C 188.549 99.619, 188.599 101.091, 190.500 100.362 C 191.531 99.966, 192 100.423, 192 101.826 C 192 104.242, 195.491 105.667, 197.443 104.048 C 198.183 103.433, 199.174 103.041, 199.645 103.177 C 200.959 103.558, 205.345 100.901, 206.810 98.837 C 208.231 96.834, 212.167 97.160, 215 99.516 C 215.825 100.202, 217.512 101.072, 218.750 101.449 C 220.664 102.032, 221 101.763, 221 99.651 C 221 98.284, 221.563 96.975, 222.250 96.741 C 222.938 96.507, 221.605 95.345, 219.290 94.158 C 214.138 91.517, 214 91.513, 214 94 M 85.204 98.067 C 83.959 100.230, 83.320 102, 83.785 102 C 84.646 102, 88.340 95.007, 87.777 94.443 C 87.606 94.273, 86.449 95.904, 85.204 98.067 M 176 106.691 C 176 115.905, 176.186 117.127, 177.348 115.538 C 178.090 114.524, 179.215 114.015, 179.848 114.406 C 180.529 114.827, 181 114.481, 181 113.559 C 181 112.702, 181.450 112, 182 112 C 182.550 112, 183.937 111.063, 185.081 109.919 C 187.064 107.936, 187.254 107.920, 189.081 109.574 C 190.197 110.583, 191 110.826, 191 110.155 C 191 109.520, 191.450 109, 192 109 C 192.550 109, 193 109.605, 193 110.345 C 193 111.747, 196.731 115.628, 197.389 114.911 C 197.597 114.685, 198.070 113.080, 198.442 111.345 C 199.254 107.552, 197.500 105.964, 195.465 108.650 C 194.127 110.416, 194.062 110.400, 194.032 108.295 C 194.007 106.577, 193.228 105.946, 190.500 105.434 C 187.341 104.841, 186.525 104.010, 186.882 101.750 C 186.947 101.337, 186.494 101.112, 185.875 101.250 C 183.743 101.724, 183.922 99.254, 186.060 98.695 C 189.906 97.689, 187.012 96, 181.441 96 L 176 96 176 106.691 M 195.192 97.075 C 195.389 97.666, 195.978 98.150, 196.500 98.150 C 197.022 98.150, 197.611 97.666, 197.808 97.075 C 198.005 96.484, 197.417 96, 196.500 96 C 195.583 96, 194.995 96.484, 195.192 97.075 M 44.031 97.500 C 44.031 98.050, 44.467 99.175, 45 100 C 45.533 100.825, 45.969 101.050, 45.969 100.500 C 45.969 99.950, 45.533 98.825, 45 98 C 44.467 97.175, 44.031 96.950, 44.031 97.500 M 223.270 98.130 C 222.397 99.003, 222.711 100.066, 224.558 102.487 C 225.901 104.248, 227 106.160, 227 106.736 C 227 107.312, 228.098 108.059, 229.440 108.396 C 231.401 108.888, 231.941 109.743, 232.190 112.754 C 232.475 116.192, 232.752 116.503, 235.570 116.536 C 238.191 116.566, 238.580 116.253, 238.225 114.398 C 237.680 111.544, 232.250 105, 230.427 105 C 229.642 105, 229 104.311, 229 103.469 C 229 102.626, 228.317 101.675, 227.482 101.355 C 226.648 101.035, 226.085 100.083, 226.232 99.240 C 226.573 97.291, 224.781 96.619, 223.270 98.130 M 231 100 C 231 100.550, 231.477 101, 232.059 101 C 232.641 101, 232.840 100.550, 232.500 100 C 232.160 99.450, 231.684 99, 231.441 99 C 231.198 99, 231 99.450, 231 100 M 109 102 C 109 103.100, 109.450 104, 110 104 C 110.550 104, 111 103.100, 111 102 C 111 100.900, 110.550 100, 110 100 C 109.450 100, 109 100.900, 109 102 M 101 103 C 101 103.550, 101.450 104, 102 104 C 102.550 104, 103 103.550, 103 103 C 103 102.450, 102.550 102, 102 102 C 101.450 102, 101 102.450, 101 103 M 81.583 104.643 C 80.665 107.037, 81.381 107.221, 82.796 104.955 C 83.468 103.880, 83.611 103, 83.115 103 C 82.620 103, 81.930 103.739, 81.583 104.643 M 47.500 105 C 47.840 105.550, 48.316 106, 48.559 106 C 48.802 106, 49 105.550, 49 105 C 49 104.450, 48.523 104, 47.941 104 C 47.359 104, 47.160 104.450, 47.500 105 M 143.513 107.979 C 143.121 108.614, 143.066 109.399, 143.391 109.725 C 143.716 110.050, 143.472 110.931, 142.849 111.682 C 142.225 112.434, 141.968 113.302, 142.278 113.611 C 142.587 113.920, 143.618 112.986, 144.569 111.535 C 145.761 109.716, 145.976 108.576, 145.262 107.862 C 144.547 107.147, 144.004 107.184, 143.513 107.979 M 32 139.800 C 32 159.267, 32.355 170, 33 170 C 33.640 170, 34.043 160.004, 34.118 142.250 C 34.248 111.952, 34.247 111.929, 32.916 110.550 C 32.360 109.974, 32 121.478, 32 139.800 M 243 111.500 C 243 112.325, 243.450 113, 244 113 C 244.550 113, 245 112.325, 245 111.500 C 245 110.675, 244.550 110, 244 110 C 243.450 110, 243 110.675, 243 111.500 M 201 112.809 C 201 114.049, 201.694 115.329, 202.543 115.655 C 205.150 116.655, 205.507 115.063, 203.194 112.750 L 201 110.556 201 112.809 M 144.995 114.512 C 144.131 116.785, 143.613 116.983, 139.556 116.585 C 134.280 116.069, 129.225 117.716, 128.433 120.211 C 127.697 122.532, 128.414 123.561, 132.020 125.360 C 134.687 126.690, 135 126.683, 135 125.291 C 135 122.962, 140.943 118.373, 145 117.568 C 146.660 117.239, 148 115.619, 148 113.941 C 148 111.181, 146.126 111.537, 144.995 114.512 M 126 114.500 C 126 115.325, 126.450 116, 127 116 C 127.550 116, 128 115.325, 128 114.500 C 128 113.675, 127.550 113, 127 113 C 126.450 113, 126 113.675, 126 114.500 M 191 114 C 191 114.550, 191.450 115, 192 115 C 192.550 115, 193 114.550, 193 114 C 193 113.450, 192.550 113, 192 113 C 191.450 113, 191 113.450, 191 114 M 244.385 115.439 C 244.081 116.231, 244.307 117.693, 244.886 118.689 C 245.781 120.228, 245.944 120.012, 245.970 117.250 C 246.002 113.822, 245.309 113.030, 244.385 115.439 M 93.123 117.629 C 91.445 121.313, 92.252 121.535, 94.359 117.969 C 95.324 116.336, 95.710 115, 95.217 115 C 94.724 115, 93.782 116.183, 93.123 117.629 M 35.500 117 C 35.840 117.550, 36.316 118, 36.559 118 C 36.802 118, 37 117.550, 37 117 C 37 116.450, 36.523 116, 35.941 116 C 35.359 116, 35.160 116.450, 35.500 117 M 153.726 120.061 C 154.060 121.336, 153.161 121.908, 149.830 122.538 C 147.448 122.988, 144.334 123.257, 142.908 123.136 C 140.353 122.918, 137.111 125.444, 138.353 126.686 C 138.703 127.037, 140.872 126.702, 143.172 125.943 C 146.407 124.876, 147.446 124.839, 147.760 125.781 C 147.988 126.465, 149.900 127, 152.115 127 C 156.534 127, 158.106 125, 156.149 121.868 C 155.430 120.716, 155.370 120, 155.992 120 C 156.546 120, 157 119.578, 157 119.062 C 157 118.546, 156.166 118.187, 155.146 118.264 C 153.944 118.355, 153.445 118.986, 153.726 120.061 M 55.015 119.750 C 55.043 121.119, 56.882 123.452, 57.469 122.864 C 58.257 122.076, 57.002 119, 55.893 119 C 55.402 119, 55.007 119.338, 55.015 119.750 M 100.800 120.200 C 101.733 121.133, 102.267 121.133, 103.200 120.200 C 104.133 119.267, 103.867 119, 102 119 C 100.133 119, 99.867 119.267, 100.800 120.200 M 72.607 121.582 C 71.668 124.029, 71.872 124.271, 73.500 122.643 C 75.200 120.943, 75.417 120, 74.107 120 C 73.616 120, 72.941 120.712, 72.607 121.582 M 245.667 122.667 C 244.597 123.736, 244.899 134, 246 134 C 246.556 134, 247 131.333, 247 128 C 247 121.946, 246.877 121.456, 245.667 122.667 M 40.031 124.500 C 40.031 125.050, 40.467 126.175, 41 127 C 41.533 127.825, 41.969 128.050, 41.969 127.500 C 41.969 126.950, 41.533 125.825, 41 125 C 40.467 124.175, 40.031 123.950, 40.031 124.500 M 233.500 126 C 233.160 126.550, 233.359 127, 233.941 127 C 234.523 127, 235 126.550, 235 126 C 235 125.450, 234.802 125, 234.559 125 C 234.316 125, 233.840 125.450, 233.500 126 M 59.071 126.500 C 59.071 127.050, 59.714 128.625, 60.500 130 C 61.286 131.375, 61.929 132.050, 61.929 131.500 C 61.929 130.950, 61.286 129.375, 60.500 128 C 59.714 126.625, 59.071 125.950, 59.071 126.500 M 124 127 C 124 127.550, 124.450 128, 125 128 C 125.550 128, 126 127.550, 126 127 C 126 126.450, 125.550 126, 125 126 C 124.450 126, 124 126.450, 124 127 M 214 126.969 C 214 127.672, 215.991 130, 218.424 132.142 C 222.915 136.095, 226.279 142.750, 225.654 146.446 C 225.175 149.282, 223.007 149.594, 222.960 146.833 C 222.920 144.522, 222.906 144.525, 221.489 147.134 C 220.156 149.586, 215.458 151.792, 214.215 150.549 C 213.914 150.247, 214.164 150, 214.771 150 C 215.379 150, 215.904 149.100, 215.938 148 C 215.972 146.900, 216.028 145.095, 216.061 143.990 C 216.095 142.884, 215.385 141.242, 214.483 140.340 C 212.964 138.821, 212.868 138.840, 213.172 140.600 C 213.427 142.080, 212.973 142.442, 211.117 142.238 C 208.577 141.959, 205.696 143.700, 206.512 145.020 C 206.782 145.456, 206.102 145.578, 205.001 145.290 C 202.700 144.688, 202.634 144.908, 204.022 148.558 C 204.855 150.748, 204.715 151.493, 203.272 152.574 C 201.663 153.779, 201.719 153.845, 203.883 153.299 C 205.194 152.968, 206.484 151.865, 206.750 150.849 C 207.739 147.064, 209.788 150.007, 209.118 154.250 C 209.053 154.662, 210.088 155, 211.417 155 C 212.746 155, 214.003 155.510, 214.211 156.134 C 214.459 156.877, 215.152 156.705, 216.223 155.634 C 217.122 154.735, 218.054 154, 218.296 154 C 218.537 154, 219.925 155.800, 221.381 158 C 224.474 162.673, 225.273 162.891, 226.825 159.485 C 227.455 158.102, 229.215 156.436, 230.735 155.783 C 234.488 154.171, 234.440 154.235, 233.085 152.602 C 232.425 151.807, 230.151 147.634, 228.031 143.328 C 224.377 135.905, 221.338 131.841, 216.250 127.576 C 214.739 126.310, 214 126.110, 214 126.969 M 69.204 129.045 C 68.532 130.120, 68.389 131, 68.885 131 C 69.782 131, 71.328 127.995, 70.736 127.402 C 70.564 127.231, 69.875 127.970, 69.204 129.045 M 132 131 C 132 131.550, 132.423 132, 132.941 132 C 133.459 132, 134.160 131.550, 134.500 131 C 134.840 130.450, 134.416 130, 133.559 130 C 132.702 130, 132 130.450, 132 131 M 84.123 134.629 C 82.458 138.284, 83.184 138.486, 85.222 134.935 C 86.149 133.321, 86.550 132, 86.114 132 C 85.678 132, 84.782 133.183, 84.123 134.629 M 44.015 133.750 C 44.043 135.119, 45.882 137.452, 46.469 136.864 C 47.257 136.076, 46.002 133, 44.893 133 C 44.402 133, 44.007 133.338, 44.015 133.750 M 66 134.802 C 66 135.431, 65.288 135.664, 64.401 135.324 C 63.003 134.787, 62.970 134.979, 64.134 136.842 L 65.465 138.975 66.254 136.842 C 66.688 135.669, 66.808 134.475, 66.521 134.188 C 66.235 133.901, 66 134.178, 66 134.802 M 176.667 134.667 C 175.535 135.798, 175.931 142.910, 177.250 145.144 C 178.250 146.838, 178.250 147.352, 177.250 147.714 C 176.563 147.963, 176 149.704, 176 151.583 L 176 155 181 155 C 184.778 155, 186 154.633, 186 153.500 C 186 151.802, 187.566 151.489, 188.500 153 C 188.840 153.550, 189.597 154, 190.181 154 C 190.842 154, 190.764 153.420, 189.974 152.468 C 188.857 151.122, 189.034 151.062, 191.435 151.975 C 194.928 153.303, 196.166 152.510, 195.395 149.439 C 194.929 147.582, 195.182 147, 196.455 147 C 198.653 147, 198.223 140.797, 196 140.434 C 195.175 140.299, 193.375 139.725, 192 139.158 C 189.571 138.156, 189.564 138.125, 191.750 138.063 C 195.475 137.958, 194.279 136.335, 190.368 136.188 C 188.370 136.112, 185.874 135.777, 184.820 135.443 C 183.766 135.108, 182.270 135.361, 181.496 136.003 C 179.957 137.281, 177.616 136.431, 178.543 134.931 C 179.199 133.870, 177.678 133.655, 176.667 134.667 M 100.543 135.931 C 99.803 137.128, 101.684 138.313, 103.016 137.490 C 104.135 136.799, 103.400 135, 102 135 C 101.515 135, 100.859 135.419, 100.543 135.931 M 244.622 138.508 C 244.228 140.153, 243.671 142.287, 243.385 143.250 C 243.099 144.213, 243.325 145, 243.887 145 C 245.027 145, 246.445 138.834, 245.770 136.811 C 245.533 136.099, 245.016 136.862, 244.622 138.508 M 109 141.559 C 109 142.416, 109.450 142.840, 110 142.500 C 110.550 142.160, 111 141.459, 111 140.941 C 111 140.423, 110.550 140, 110 140 C 109.450 140, 109 140.702, 109 141.559 M 137 146 C 137 146.550, 137.477 147, 138.059 147 C 138.641 147, 138.840 146.550, 138.500 146 C 138.160 145.450, 137.684 145, 137.441 145 C 137.198 145, 137 145.450, 137 146 M 139.750 150.661 C 138.238 151.457, 137 152.785, 137 153.611 C 137 154.931, 137.270 154.924, 139.223 153.557 C 142.353 151.364, 148.719 151.486, 149.311 153.750 C 149.670 155.125, 149.793 155.038, 149.884 153.348 C 149.968 151.784, 149.139 150.896, 146.851 150.098 C 143.153 148.809, 143.286 148.798, 139.750 150.661 M 127.032 150.750 C 127.076 151.782, 129.579 155, 130.339 155 C 130.679 155, 130.445 153.875, 129.818 152.500 C 128.759 150.176, 126.960 149.045, 127.032 150.750 M 100.500 153 C 100.840 153.550, 101.541 154, 102.059 154 C 102.577 154, 103 153.550, 103 153 C 103 152.450, 102.298 152, 101.441 152 C 100.584 152, 100.160 152.450, 100.500 153 M 109 154.559 C 109 155.416, 109.450 155.840, 110 155.500 C 110.550 155.160, 111 154.459, 111 153.941 C 111 153.423, 110.550 153, 110 153 C 109.450 153, 109 153.702, 109 154.559 M 151.176 155.224 C 149.449 156.951, 149.739 158, 151.941 158 C 154.452 158, 155.339 156.526, 153.665 155.137 C 152.713 154.347, 152.030 154.370, 151.176 155.224 M 56 155.941 C 56 156.459, 56.445 157.157, 56.989 157.493 C 57.555 157.843, 57.723 157.442, 57.382 156.552 C 56.717 154.820, 56 154.503, 56 155.941 M 71.195 158.060 C 70.007 159.962, 70.065 160.036, 71.954 159.024 C 73.079 158.422, 74 157.495, 74 156.965 C 74 155.328, 72.546 155.896, 71.195 158.060 M 142.238 159.423 C 142.382 161.580, 143.082 163.537, 143.794 163.771 C 144.747 164.084, 144.909 163.447, 144.409 161.348 C 143.198 156.269, 141.953 155.164, 142.238 159.423 M 109 160.441 C 109 161.298, 109.450 162, 110 162 C 110.550 162, 111 161.577, 111 161.059 C 111 160.541, 110.550 159.840, 110 159.500 C 109.450 159.160, 109 159.584, 109 160.441 M 63.250 160.689 C 64.213 160.941, 65.787 160.941, 66.750 160.689 C 67.713 160.438, 66.925 160.232, 65 160.232 C 63.075 160.232, 62.288 160.438, 63.250 160.689 M 101.710 165 C 101.998 166.100, 102.406 167, 102.617 167 C 102.827 167, 103 166.100, 103 165 C 103 163.900, 102.592 163, 102.094 163 C 101.595 163, 101.423 163.900, 101.710 165 M 138 165.190 C 138 167.155, 141.191 170, 143.394 170 C 144.350 170, 146.054 170.494, 147.181 171.097 C 148.799 171.963, 149.138 171.910, 148.791 170.847 C 148.548 170.106, 146.955 169.038, 145.251 168.474 C 143.547 167.910, 141.219 166.603, 140.076 165.569 C 138.399 164.051, 138 163.978, 138 165.190 M 154 180.893 C 154 181.384, 154.739 182.069, 155.641 182.416 C 157.014 182.943, 157.076 182.796, 156.019 181.523 C 154.579 179.788, 154 179.607, 154 180.893 M 199.813 187.683 C 200.534 187.972, 201.397 187.936, 201.729 187.604 C 202.061 187.272, 201.471 187.036, 200.417 187.079 C 199.252 187.127, 199.015 187.364, 199.813 187.683" stroke="none" fill="#dead79" fill-rule="evenodd"/><path d="M 173.813 69.683 C 174.534 69.972, 175.397 69.936, 175.729 69.604 C 176.061 69.272, 175.471 69.036, 174.417 69.079 C 173.252 69.127, 173.015 69.364, 173.813 69.683 M 178.018 73.344 C 178.035 74.444, 185.240 81, 186.433 81 C 187.866 81, 186.759 78.032, 184.473 75.746 C 181.645 72.918, 177.990 71.558, 178.018 73.344 M 211 73.306 C 211 74.059, 209.108 75.166, 206.750 75.792 C 204.412 76.413, 199.350 77.813, 195.500 78.903 L 188.500 80.885 201.250 80.942 L 214 81 214 86.301 L 214 91.601 218.750 93.940 C 221.363 95.226, 222.938 96.478, 222.250 96.722 C 221.563 96.967, 221 98.284, 221 99.651 C 221 101.763, 220.664 102.032, 218.750 101.449 C 217.512 101.072, 215.825 100.202, 215 99.516 C 212.167 97.160, 208.231 96.834, 206.810 98.837 C 205.345 100.901, 200.959 103.558, 199.645 103.177 C 199.174 103.041, 198.183 103.433, 197.443 104.048 C 195.491 105.667, 192 104.242, 192 101.826 C 192 100.423, 191.531 99.966, 190.500 100.362 C 188.599 101.091, 188.549 99.619, 190.422 98.065 C 192.073 96.694, 196 98.577, 196 100.741 C 196 102.520, 197.668 102.307, 198.386 100.437 C 198.716 99.577, 199.439 99.153, 199.993 99.496 C 201.500 100.427, 202.992 99.143, 202.349 97.468 C 201.570 95.436, 198.360 95.624, 197.536 97.750 C 196.889 99.417, 196.796 99.417, 195.568 97.750 C 194.141 95.813, 186.357 95.150, 187.542 97.067 C 187.906 97.657, 187.243 98.385, 186.060 98.695 C 183.922 99.254, 183.743 101.724, 185.875 101.250 C 186.494 101.113, 186.947 101.338, 186.882 101.750 C 186.525 104.010, 187.341 104.841, 190.500 105.434 C 193.228 105.946, 194.007 106.577, 194.032 108.295 C 194.062 110.400, 194.127 110.416, 195.465 108.650 C 197.500 105.964, 199.254 107.552, 198.442 111.345 C 198.070 113.080, 197.597 114.685, 197.389 114.911 C 196.731 115.628, 193 111.747, 193 110.345 C 193 109.605, 192.550 109, 192 109 C 191.450 109, 191 109.520, 191 110.155 C 191 110.826, 190.197 110.583, 189.081 109.574 C 187.254 107.920, 187.064 107.936, 185.081 109.919 C 183.937 111.063, 182.550 112, 182 112 C 181.450 112, 181 112.661, 181 113.469 C 181 114.328, 180.410 114.711, 179.577 114.391 C 178.765 114.079, 177.682 114.726, 177.056 115.896 C 175.975 117.915, 176.186 117.951, 190.646 118.223 L 205.333 118.500 205.269 123 C 205.125 133.037, 206.538 132, 193 132 C 184.794 132, 181 132.355, 181 133.122 C 181 133.913, 180.569 133.887, 179.544 133.036 C 178.060 131.805, 176 132.381, 176 134.028 C 176 134.528, 176.749 134.650, 177.664 134.299 C 178.735 133.888, 179.086 134.053, 178.648 134.761 C 177.641 136.390, 179.863 137.359, 181.496 136.003 C 182.270 135.361, 183.766 135.108, 184.820 135.443 C 185.874 135.777, 188.370 136.112, 190.368 136.188 C 194.279 136.335, 195.475 137.958, 191.750 138.063 C 189.564 138.125, 189.571 138.156, 192 139.158 C 193.375 139.725, 195.175 140.299, 196 140.434 C 198.223 140.797, 198.653 147, 196.455 147 C 195.182 147, 194.929 147.582, 195.395 149.439 C 196.166 152.510, 194.928 153.303, 191.435 151.975 C 189.034 151.062, 188.857 151.122, 189.974 152.468 C 190.764 153.420, 190.842 154, 190.181 154 C 189.597 154, 188.840 153.550, 188.500 153 C 187.566 151.489, 186 151.802, 186 153.500 C 186 154.710, 187.692 155.023, 194.750 155.118 C 199.563 155.184, 203.950 155.131, 204.500 155.001 C 205.050 154.871, 206.293 154.705, 207.263 154.632 C 208.232 154.560, 209.020 154.162, 209.013 153.750 C 209.006 153.338, 209 152.100, 209 151 C 209 148.486, 207.396 148.378, 206.750 150.849 C 206.484 151.865, 205.194 152.968, 203.883 153.299 C 201.719 153.845, 201.663 153.779, 203.272 152.574 C 204.715 151.493, 204.855 150.748, 204.022 148.558 C 202.634 144.908, 202.700 144.688, 205.001 145.290 C 206.102 145.578, 206.782 145.456, 206.512 145.020 C 205.696 143.700, 208.577 141.959, 211.117 142.238 C 212.973 142.442, 213.427 142.080, 213.172 140.600 C 212.868 138.840, 212.964 138.821, 214.483 140.340 C 215.385 141.242, 216.095 142.884, 216.061 143.990 C 216.028 145.095, 215.972 146.900, 215.938 148 C 215.904 149.100, 215.379 150, 214.771 150 C 214.164 150, 213.914 150.247, 214.215 150.549 C 215.458 151.792, 220.156 149.586, 221.489 147.134 C 222.906 144.525, 222.920 144.522, 222.960 146.833 C 223.007 149.594, 225.175 149.282, 225.654 146.446 C 226.285 142.715, 222.914 136.094, 218.328 132.057 C 215.842 129.869, 213.979 127.564, 214.188 126.937 C 214.996 124.512, 224.273 135.416, 228.054 143.235 C 230.161 147.592, 232.425 151.807, 233.085 152.602 C 234.440 154.235, 234.488 154.171, 230.735 155.783 C 229.215 156.436, 227.455 158.102, 226.825 159.485 C 225.273 162.891, 224.474 162.673, 221.381 158 C 219.925 155.800, 218.574 154, 218.379 154 C 218.183 154, 217.118 154.775, 216.011 155.722 C 214.728 156.821, 214 158.676, 214 160.847 C 214 164.040, 214.173 164.215, 216.797 163.691 C 219.983 163.053, 220.977 163.567, 222.776 166.778 C 223.857 168.708, 223.780 169.428, 222.276 171.497 C 221.299 172.839, 219.037 174.227, 217.250 174.580 C 213.947 175.233, 212.712 177, 215.559 177 C 216.416 177, 216.829 177.468, 216.475 178.041 C 215.817 179.105, 209.484 183.318, 205 185.674 C 203.625 186.397, 203.122 186.990, 203.881 186.994 C 204.641 186.997, 208.824 185.103, 213.176 182.783 C 224.703 176.642, 236.576 163.383, 240.743 152 C 241.447 150.075, 242.306 147.825, 242.651 147 C 242.996 146.175, 243.368 144.825, 243.478 144 C 243.589 143.175, 244.039 140.925, 244.479 139 C 245.159 136.028, 245.251 129.378, 244.803 115.750 C 244.754 114.237, 244.275 113, 243.740 113 C 243.205 113, 243.002 112.100, 243.290 111 C 243.577 109.900, 243.441 109, 242.986 109 C 242.531 109, 241.838 107.537, 241.446 105.750 C 240.530 101.577, 235.604 92.728, 231.067 87.104 C 225.425 80.112, 211 70.193, 211 73.306 M 200 74 C 200 74.550, 200.648 75, 201.441 75 C 202.234 75, 203.160 74.550, 203.500 74 C 203.840 73.450, 203.191 73, 202.059 73 C 200.927 73, 200 73.450, 200 74 M 177.500 80 C 174.514 80.760, 174.518 80.764, 178.250 80.882 C 180.313 80.947, 182 80.550, 182 80 C 182 78.898, 181.830 78.898, 177.500 80 M 220.488 83.256 C 219.706 85.448, 220.549 87.891, 222.980 90.478 C 225.756 93.433, 228.566 93.909, 227.537 91.250 C 227.165 90.287, 226.620 88.314, 226.328 86.864 C 225.728 83.893, 221.249 81.125, 220.488 83.256 M 100.543 85.931 C 99.803 87.128, 101.684 88.313, 103.016 87.490 C 104.135 86.799, 103.400 85, 102 85 C 101.515 85, 100.859 85.419, 100.543 85.931 M 153.547 86.924 C 153.233 87.431, 150.681 88.610, 147.875 89.541 C 136.956 93.168, 128 99.640, 128 103.904 C 128 105.137, 134.758 100.713, 136.488 98.347 C 137.153 97.438, 138.219 97.017, 138.858 97.412 C 139.608 97.876, 138.070 99.911, 134.510 103.165 C 129.249 107.973, 127.384 112, 130.417 112 C 131.196 112, 131.983 111.609, 132.167 111.132 C 132.689 109.773, 137 108.703, 137 109.933 C 137 110.520, 136.564 111, 136.031 111 C 135.499 111, 135.315 111.656, 135.622 112.458 C 135.994 113.427, 135.327 114.131, 133.632 114.556 C 132.229 114.908, 130.558 115.827, 129.919 116.598 C 129.279 117.369, 127.733 118, 126.485 118 C 123.562 118, 123 119.629, 123 128.107 C 123 134.391, 123.213 135.129, 125.250 135.890 C 127.864 136.865, 130.982 136.747, 132.834 135.603 C 133.549 135.161, 134.428 135.094, 134.788 135.454 C 135.148 135.814, 134.835 136.484, 134.093 136.943 C 133.351 137.401, 133.034 138.246, 133.388 138.819 C 133.743 139.393, 134.085 142.180, 134.149 145.013 C 134.282 150.933, 136.384 152.814, 138.800 149.175 C 139.933 147.468, 141.239 146.997, 144.872 146.985 C 148.229 146.974, 149.088 146.703, 148 146 C 147.175 145.467, 144.813 145.024, 142.750 145.015 C 138.666 144.999, 138.264 144.388, 140.410 141.454 C 141.751 139.620, 141.912 139.611, 143.738 141.263 C 144.794 142.218, 146.185 143, 146.829 143 C 147.473 143, 148 143.450, 148 144 C 148 144.550, 148.563 144.981, 149.250 144.957 C 149.938 144.933, 148.137 142.795, 145.250 140.207 C 142.362 137.618, 139.993 134.825, 139.984 134 C 139.971 132.687, 139.853 132.684, 139.039 133.971 C 138.527 134.780, 137.760 135.093, 137.333 134.667 C 135.130 132.463, 142.864 131.983, 145.623 134.151 C 146.241 134.637, 147.401 134.783, 148.201 134.476 C 150.028 133.775, 155 135.603, 155 136.975 C 155 137.539, 154.376 138, 153.613 138 C 152.830 138, 152.031 139.337, 151.776 141.072 C 151.363 143.885, 152.430 146.162, 156.171 150.450 C 156.627 150.972, 157 145.786, 157 138.924 L 157 126.447 152.881 126.840 C 150.210 127.095, 148.479 126.775, 147.957 125.931 C 147.298 124.865, 146.416 124.873, 143.071 125.976 C 140.827 126.717, 138.703 127.037, 138.353 126.686 C 137.111 125.444, 140.353 122.918, 142.908 123.136 C 144.334 123.257, 147.448 122.988, 149.830 122.538 C 153.376 121.867, 154.072 121.382, 153.673 119.858 C 153.405 118.835, 153.504 118.193, 153.891 118.433 C 154.278 118.672, 155.249 118.455, 156.048 117.949 C 157.379 117.107, 156.721 116.770, 154.362 117.085 C 153.021 117.265, 152.227 114.608, 153.168 113.089 C 154.306 111.254, 152.553 105.540, 151.123 106.424 C 149.944 107.152, 144 104.132, 144 102.804 C 144 102.080, 143.602 102.085, 142.716 102.820 C 141.933 103.470, 140.873 103.539, 139.995 102.997 C 138.221 101.900, 139.030 100.986, 142.140 100.576 C 145.290 100.160, 148 98.968, 148 97.998 C 148 97.565, 146.425 97.566, 144.500 98 C 141.781 98.613, 141 98.475, 141 97.379 C 141 95.496, 148.171 92.050, 148.718 93.669 C 148.989 94.473, 150.346 94.181, 153.056 92.734 C 155.906 91.213, 157 89.987, 157 88.314 C 157 86.017, 154.684 85.084, 153.547 86.924 M 109 89.059 C 109 89.641, 109.450 89.840, 110 89.500 C 110.550 89.160, 111 88.684, 111 88.441 C 111 88.198, 110.550 88, 110 88 C 109.450 88, 109 88.477, 109 89.059 M 153.200 97.200 C 151.567 98.833, 151.692 100, 153.500 100 C 154.325 100, 155 100.450, 155 101 C 155 101.550, 155.372 102, 155.827 102 C 156.282 102, 156.455 100.650, 156.213 99 C 155.736 95.747, 155.058 95.342, 153.200 97.200 M 223.270 98.130 C 222.397 99.003, 222.711 100.066, 224.558 102.487 C 225.901 104.248, 227 106.160, 227 106.736 C 227 107.312, 228.098 108.059, 229.440 108.396 C 231.401 108.888, 231.941 109.743, 232.190 112.754 C 232.475 116.192, 232.752 116.503, 235.570 116.536 C 238.191 116.566, 238.580 116.253, 238.225 114.398 C 237.680 111.544, 232.250 105, 230.427 105 C 229.642 105, 229 104.311, 229 103.469 C 229 102.626, 228.317 101.675, 227.482 101.355 C 226.648 101.035, 226.085 100.083, 226.232 99.240 C 226.573 97.291, 224.781 96.619, 223.270 98.130 M 231 100 C 231 100.550, 231.477 101, 232.059 101 C 232.641 101, 232.840 100.550, 232.500 100 C 232.160 99.450, 231.684 99, 231.441 99 C 231.198 99, 231 99.450, 231 100 M 109 102 C 109 103.100, 109.450 104, 110 104 C 110.550 104, 111 103.100, 111 102 C 111 100.900, 110.550 100, 110 100 C 109.450 100, 109 100.900, 109 102 M 101 103 C 101 103.550, 101.450 104, 102 104 C 102.550 104, 103 103.550, 103 103 C 103 102.450, 102.550 102, 102 102 C 101.450 102, 101 102.450, 101 103 M 143.513 107.979 C 143.121 108.614, 143.066 109.399, 143.391 109.725 C 143.716 110.050, 143.472 110.931, 142.849 111.682 C 142.225 112.434, 141.968 113.302, 142.278 113.611 C 142.587 113.920, 143.618 112.986, 144.569 111.535 C 145.761 109.716, 145.976 108.576, 145.262 107.862 C 144.547 107.147, 144.004 107.184, 143.513 107.979 M 201 112.809 C 201 114.049, 201.694 115.329, 202.543 115.655 C 205.150 116.655, 205.507 115.063, 203.194 112.750 L 201 110.556 201 112.809 M 144.995 114.512 C 144.131 116.785, 143.613 116.983, 139.556 116.585 C 134.280 116.069, 129.225 117.716, 128.433 120.211 C 127.697 122.532, 128.414 123.561, 132.020 125.360 C 134.687 126.690, 135 126.683, 135 125.291 C 135 122.962, 140.943 118.373, 145 117.568 C 146.660 117.239, 148 115.619, 148 113.941 C 148 111.181, 146.126 111.537, 144.995 114.512 M 126 114.500 C 126 115.325, 126.450 116, 127 116 C 127.550 116, 128 115.325, 128 114.500 C 128 113.675, 127.550 113, 127 113 C 126.450 113, 126 113.675, 126 114.500 M 191 114 C 191 114.550, 191.450 115, 192 115 C 192.550 115, 193 114.550, 193 114 C 193 113.450, 192.550 113, 192 113 C 191.450 113, 191 113.450, 191 114 M 100.800 120.200 C 101.733 121.133, 102.267 121.133, 103.200 120.200 C 104.133 119.267, 103.867 119, 102 119 C 100.133 119, 99.867 119.267, 100.800 120.200 M 155.500 121 C 155.840 121.550, 156.316 122, 156.559 122 C 156.802 122, 157 121.550, 157 121 C 157 120.450, 156.523 120, 155.941 120 C 155.359 120, 155.160 120.450, 155.500 121 M 233.500 126 C 233.160 126.550, 233.359 127, 233.941 127 C 234.523 127, 235 126.550, 235 126 C 235 125.450, 234.802 125, 234.559 125 C 234.316 125, 233.840 125.450, 233.500 126 M 124 127 C 124 127.550, 124.450 128, 125 128 C 125.550 128, 126 127.550, 126 127 C 126 126.450, 125.550 126, 125 126 C 124.450 126, 124 126.450, 124 127 M 132 131 C 132 131.550, 132.423 132, 132.941 132 C 133.459 132, 134.160 131.550, 134.500 131 C 134.840 130.450, 134.416 130, 133.559 130 C 132.702 130, 132 130.450, 132 131 M 100.543 135.931 C 99.803 137.128, 101.684 138.313, 103.016 137.490 C 104.135 136.799, 103.400 135, 102 135 C 101.515 135, 100.859 135.419, 100.543 135.931 M 109 141.559 C 109 142.416, 109.450 142.840, 110 142.500 C 110.550 142.160, 111 141.459, 111 140.941 C 111 140.423, 110.550 140, 110 140 C 109.450 140, 109 140.702, 109 141.559 M 176 145.941 C 176 147.073, 176.450 148, 177 148 C 177.550 148, 178 147.352, 178 146.559 C 178 145.766, 177.550 144.840, 177 144.500 C 176.450 144.160, 176 144.809, 176 145.941 M 137 146 C 137 146.550, 137.477 147, 138.059 147 C 138.641 147, 138.840 146.550, 138.500 146 C 138.160 145.450, 137.684 145, 137.441 145 C 137.198 145, 137 145.450, 137 146 M 139.750 150.661 C 138.238 151.457, 137 152.785, 137 153.611 C 137 154.931, 137.270 154.924, 139.223 153.557 C 142.353 151.364, 148.719 151.486, 149.311 153.750 C 149.670 155.125, 149.793 155.038, 149.884 153.348 C 149.968 151.784, 149.139 150.896, 146.851 150.098 C 143.153 148.809, 143.286 148.798, 139.750 150.661 M 127.032 150.750 C 127.076 151.782, 129.579 155, 130.339 155 C 130.679 155, 130.445 153.875, 129.818 152.500 C 128.759 150.176, 126.960 149.045, 127.032 150.750 M 100.500 153 C 100.840 153.550, 101.541 154, 102.059 154 C 102.577 154, 103 153.550, 103 153 C 103 152.450, 102.298 152, 101.441 152 C 100.584 152, 100.160 152.450, 100.500 153 M 109 154.559 C 109 155.416, 109.450 155.840, 110 155.500 C 110.550 155.160, 111 154.459, 111 153.941 C 111 153.423, 110.550 153, 110 153 C 109.450 153, 109 153.702, 109 154.559 M 151.176 155.224 C 149.449 156.951, 149.739 158, 151.941 158 C 154.452 158, 155.339 156.526, 153.665 155.137 C 152.713 154.347, 152.030 154.370, 151.176 155.224 M 142.238 159.423 C 142.382 161.580, 143.082 163.537, 143.794 163.771 C 144.747 164.084, 144.909 163.447, 144.409 161.348 C 143.198 156.269, 141.953 155.164, 142.238 159.423 M 109 160.441 C 109 161.298, 109.450 162, 110 162 C 110.550 162, 111 161.577, 111 161.059 C 111 160.541, 110.550 159.840, 110 159.500 C 109.450 159.160, 109 159.584, 109 160.441 M 101.710 165 C 101.998 166.100, 102.406 167, 102.617 167 C 102.827 167, 103 166.100, 103 165 C 103 163.900, 102.592 163, 102.094 163 C 101.595 163, 101.423 163.900, 101.710 165 M 138 165.190 C 138 167.155, 141.191 170, 143.394 170 C 144.350 170, 146.054 170.494, 147.181 171.097 C 148.799 171.963, 149.138 171.910, 148.791 170.847 C 148.548 170.106, 146.955 169.038, 145.251 168.474 C 143.547 167.910, 141.219 166.603, 140.076 165.569 C 138.399 164.051, 138 163.978, 138 165.190 M 153.032 165.242 C 153.068 166.674, 155.395 170, 156.360 170 C 157.864 170, 156.830 166.375, 155 165.232 C 153.398 164.231, 153.006 164.233, 153.032 165.242 M 109 167.559 C 109 169.010, 109.433 169.851, 110 169.500 C 110.550 169.160, 111 168.009, 111 166.941 C 111 165.873, 110.550 165, 110 165 C 109.450 165, 109 166.152, 109 167.559 M 154 180.893 C 154 181.384, 154.739 182.069, 155.641 182.416 C 157.014 182.943, 157.076 182.796, 156.019 181.523 C 154.579 179.788, 154 179.607, 154 180.893 M 199.813 187.683 C 200.534 187.972, 201.397 187.936, 201.729 187.604 C 202.061 187.272, 201.471 187.036, 200.417 187.079 C 199.252 187.127, 199.015 187.364, 199.813 187.683" stroke="none" fill="#424961" fill-rule="evenodd"/><path d="M 16 125.500 L 16 170 23.985 170 L 31.971 170 32.235 139.750 C 32.467 113.277, 32.668 109.906, 33.848 112.750 C 34.589 114.537, 35.602 116, 36.098 116 C 36.594 116, 37 116.718, 37 117.596 C 37 118.473, 37.849 120.386, 38.886 121.846 C 39.923 123.306, 41.471 126.177, 42.325 128.228 C 43.180 130.278, 44.344 132.528, 44.911 133.228 C 45.479 133.927, 48.712 139.900, 52.096 146.500 C 55.480 153.100, 58.755 158.831, 59.374 159.235 C 59.993 159.639, 62.556 159.976, 65.070 159.985 C 68.582 159.996, 70.086 159.479, 71.570 157.750 C 74.416 154.433, 81.277 142.208, 83.356 136.750 C 84.351 134.137, 85.516 132, 85.944 132 C 86.372 132, 88.401 128.326, 90.454 123.836 C 92.506 119.345, 94.801 115.056, 95.554 114.304 C 97.624 112.233, 98.126 107.715, 97.798 94.082 C 97.578 84.913, 97.156 81.549, 96.184 81.226 C 95.459 80.986, 94.621 81.735, 94.317 82.895 C 94.014 84.053, 93.427 85, 93.013 85 C 92.598 85, 90.554 88.825, 88.471 93.500 C 86.388 98.175, 84.305 102, 83.842 102 C 83.379 102, 83.108 102.338, 83.240 102.750 C 83.372 103.162, 81.478 107.100, 79.032 111.500 C 76.586 115.900, 74.698 120.063, 74.836 120.750 C 74.975 121.438, 74.655 122, 74.127 122 C 73.598 122, 72.392 124.025, 71.447 126.500 C 70.502 128.975, 69.313 131, 68.805 131 C 68.297 131, 68.160 131.450, 68.500 132 C 68.840 132.550, 68.677 133, 68.138 133 C 67.600 133, 66.856 134.379, 66.486 136.063 C 65.867 138.883, 65.708 138.983, 64.495 137.324 C 63.770 136.333, 63.389 135.180, 63.648 134.761 C 63.906 134.342, 63.615 134, 63 134 C 62.385 134, 62.160 133.550, 62.500 133 C 62.840 132.450, 62.690 132, 62.168 132 C 61.645 132, 60.486 130.174, 59.593 127.941 C 58.700 125.709, 57.536 123.347, 57.006 122.691 C 56.476 122.036, 52.613 114.750, 48.422 106.500 C 44.230 98.250, 39.391 89.138, 37.667 86.250 L 34.533 81 25.266 81 L 16 81 16 125.500 M 157.667 81.667 C 157.300 82.033, 157 102.058, 157 126.167 L 157 170 185.500 170 L 214 170 214 162.427 L 214 154.855 208.750 155.013 C 205.863 155.100, 197.298 155.132, 189.717 155.085 L 175.934 155 176.217 143.750 L 176.500 132.500 190.492 132.175 C 198.187 131.996, 204.643 131.690, 204.838 131.496 C 205.032 131.301, 205.246 128.298, 205.313 124.821 L 205.435 118.500 190.718 118.223 L 176 117.947 176 106.973 L 176 96 195 96 L 214 96 214 88.500 L 214 81 186.167 81 C 170.858 81, 158.033 81.300, 157.667 81.667 M 114.460 126 C 114.460 150.475, 114.590 160.488, 114.749 148.250 C 114.908 136.013, 114.908 115.988, 114.749 103.750 C 114.590 91.513, 114.460 101.525, 114.460 126" stroke="none" fill="#7eda57" fill-rule="evenodd"/></svg>